<svg xmlns="http://www.w3.org/2000/svg" width="22.086" height="18.535" viewBox="0 0 22.086 18.535">
    <path id="Pfad_220" data-name="Pfad 220" d="M20.958.009a.957.957,0,0,0-.6.365c-.394.474-3.438,4.24-6.53,8.065-2.8,3.464-5.177,6.407-5.893,7.285l-6.321-5.8a.894.894,0,0,0-1.408.212,1.38,1.38,0,0,0,.176,1.7l.02.018L7.428,18.29a.881.881,0,0,0,1.317-.113c.394-.474,3.437-4.228,6.53-8.052S21.509,2.4,21.784,2.072A1.389,1.389,0,0,0,21.8.364.909.909,0,0,0,20.958.009Z" transform="translate(0 0)" fill="#ff6b00"/>
</svg>
