<?xml version="1.0" encoding="utf-8"?>
<!-- Generator: Adobe Illustrator 25.0.0, SVG Export Plug-In . SVG Version: 6.00 Build 0)  -->
<svg xmlns="http://www.w3.org/2000/svg" width="274.431" height="95.755" viewBox="0 0 274.431 95.755">
	<g id="KLAUS_Multiparking_Logo_2022_RGB" data-name="KLAUS Multiparking_Logo_2022_RGB" transform="translate(0 0.01)">
		<g id="Gruppe_79" data-name="Gruppe 79" transform="translate(0 -0.01)">
			<path id="Pfad_88" data-name="Pfad 88" d="M129.6.074l.76,29.8a3.28,3.28,0,0,0,2.279,1.79c2.009.473,4.171.574,5.032-1.317,2.465-5.454,6.771-22.525,8.139-30.359h13.2c-4.187,14.251-5.032,43.681-29.667,43.935-16.226.169-19.181-10.773-22.271-22.761C105.519,15.153,104.05-.01,104.05-.01l25.581.068Z" transform="translate(71.638 0.01)" fill="#374150"/>
			<path id="Pfad_89" data-name="Pfad 89" d="M1.081,0H22.66A1.088,1.088,0,0,1,23.74,1.081V15.146s-.068.186.355.422.659.084.659.084l1.266-.76L44.424,0H58.81s.338,0,.625.54A1.087,1.087,0,0,1,59.3,1.773L46.67,13.39,70.14,42.668l-.068.642a.886.886,0,0,1-.557.355H43.377L24.99,21.461a.81.81,0,0,0-.76-.152c-.456.118-.49.405-.49.405V42.6a1.077,1.077,0,0,1-1.081,1.081H1.081A1.088,1.088,0,0,1,0,42.6V1.081A1.088,1.088,0,0,1,1.081,0" transform="translate(0 0.017)" fill="#374150"/>
		</g>
		<path id="Pfad_90" data-name="Pfad 90" d="M44.714,0,43.6.794l1.857,41.875.76,1.013h28.6l2.465-.557,1.5-8.291-.76-.507-9.337-.034L72.22,1.52,70.92,0Z" transform="translate(30.018 0.007)" fill="#374150"/>
		<path id="Pfad_91" data-name="Pfad 91" d="M93.237,15.619l4.39,10.638H87.614ZM79.324,0,67.42,42.922l.507.76h10.35l4.8-8.831h18.557l3.9,8.831h19.688l.76-.507L117.231,0Z" transform="translate(46.418 0.007)" fill="#374150"/>
		<path id="Pfad_92" data-name="Pfad 92" d="M156.385,0h24.281V9.219H168.171c-.287.3-.236.017-.236.861,0,.118,10.3,18.827,10.3,22.187,0,13.137-10.418,11.448-15.889,11.414H136.14V34.023h17.29c.287-.3.236.152.236-.692,0-4.2-9.27-15.568-9.27-22.086C144.4,4.171,149.6-.034,156.385,0" transform="translate(93.732 0.007)" fill="#374150"/>
		<g id="Gruppe_80" data-name="Gruppe 80" transform="translate(0 72.055)">
			<path id="Pfad_93" data-name="Pfad 93" d="M4.559,42.867l8.746,18.81,8.746-18.81h4.576V65.915H23.1V56.949l.338-9.692-8.78,18.658h-2.7L3.191,47.291l.355,9.641V65.9H0V42.85H4.559Z" transform="translate(0 -42.546)" fill="#374150"/>
			<path id="Pfad_94" data-name="Pfad 94" d="M39.567,42.86V58.529a6.8,6.8,0,0,1-2.381,5.336,10.387,10.387,0,0,1-6.4,2.33l-.946.034a11,11,0,0,1-6.99-2.043A6.89,6.89,0,0,1,20.2,58.563V42.86h3.5v15.6a4.8,4.8,0,0,0,1.6,3.884,6.84,6.84,0,0,0,4.559,1.385,6.825,6.825,0,0,0,4.576-1.368,4.838,4.838,0,0,0,1.587-3.884V42.86h3.546Z" transform="translate(13.908 -42.539)" fill="#374150"/>
			<path id="Pfad_95" data-name="Pfad 95" d="M39.576,63.426H52.24v2.482H36.03V42.86h3.546Z" transform="translate(24.807 -42.539)" fill="#374150"/>
			<path id="Pfad_96" data-name="Pfad 96" d="M65.494,45.342H56.9V65.908H53.388V45.342H44.81V42.86H65.494v2.482Z" transform="translate(30.852 -42.539)" fill="#374150"/>
			<path id="Pfad_97" data-name="Pfad 97" d="M64.159,65.908H60.63V42.86h3.529V65.908Z" transform="translate(41.744 -42.539)" fill="#374150"/>
			<path id="Pfad_98" data-name="Pfad 98" d="M71.159,56.881V65.9H67.63V42.85h9.861a10.974,10.974,0,0,1,6.872,1.925,6.152,6.152,0,0,1,2.482,5.116,6.057,6.057,0,0,1-2.431,5.167c-1.621,1.2-3.951,1.807-6.973,1.807h-6.3Zm0-2.482h6.332a7.1,7.1,0,0,0,4.339-1.148,3.9,3.9,0,0,0,1.5-3.326,4.073,4.073,0,0,0-1.5-3.293,6.5,6.5,0,0,0-4.137-1.283H71.159Z" transform="translate(46.563 -42.546)" fill="#374150"/>
			<path id="Pfad_99" data-name="Pfad 99" d="M97.091,59.87H85.9L83.38,65.9H79.75L89.965,42.85h3.09L103.288,65.9H99.674l-2.55-6.028ZM86.96,57.388h9.084L91.485,46.615,86.943,57.388Z" transform="translate(54.908 -42.546)" fill="#374150"/>
			<path id="Pfad_100" data-name="Pfad 100" d="M106.7,56.577h-6.281V65.9H96.87V42.85h8.848c3.006,0,5.336.591,6.957,1.773a6,6,0,0,1,2.431,5.167,5.649,5.649,0,0,1-1.351,3.748,8.208,8.208,0,0,1-3.765,2.4l6.281,9.776V65.9h-3.782l-5.808-9.321ZM100.416,54.1h5.42a6.652,6.652,0,0,0,4.171-1.182,3.737,3.737,0,0,0,1.553-3.141,3.885,3.885,0,0,0-1.469-3.276,6.994,6.994,0,0,0-4.272-1.165h-5.4v8.746Z" transform="translate(66.695 -42.546)" fill="#374150"/>
			<path id="Pfad_101" data-name="Pfad 101" d="M118.465,55.193l-3.276,2.921V65.9H111.66V42.85h3.529v11.4l11.87-11.4h4.255L120.795,53.032,132.141,65.9H127.92l-9.472-10.722Z" transform="translate(76.878 -42.546)" fill="#374150"/>
			<path id="Pfad_102" data-name="Pfad 102" d="M130.4,65.908H126.87V42.86H130.4V65.908Z" transform="translate(87.35 -42.539)" fill="#374150"/>
			<path id="Pfad_103" data-name="Pfad 103" d="M154.409,65.908h-3.546L137.406,48.145V65.908H133.86V42.86h3.546L150.9,60.707V42.86h3.512V65.908Z" transform="translate(92.162 -42.539)" fill="#374150"/>
			<path id="Pfad_104" data-name="Pfad 104" d="M170.93,63.016a8.141,8.141,0,0,1-3.8,2.516,17.433,17.433,0,0,1-5.656.827,12.522,12.522,0,0,1-5.808-1.317,9.265,9.265,0,0,1-3.917-3.765,11.379,11.379,0,0,1-1.418-5.656V53.611q0-5.217,2.82-8.071c1.874-1.908,4.525-2.87,7.919-2.87a11.246,11.246,0,0,1,6.737,1.84,7.773,7.773,0,0,1,3.124,5.234H167.4q-.988-4.584-6.315-4.593a6.638,6.638,0,0,0-5.369,2.144,9.346,9.346,0,0,0-1.84,6.214V55.4a8.957,8.957,0,0,0,2.06,6.18,7.12,7.12,0,0,0,5.555,2.3,14.264,14.264,0,0,0,3.478-.371,5.554,5.554,0,0,0,2.465-1.283V57.056h-6.2V54.574h9.692v8.459Z" transform="translate(103.502 -42.67)" fill="#374150"/>
		</g>
		<rect id="Rechteck_31" data-name="Rechteck 31" width="274.398" height="4.39" transform="translate(0 55.829)" fill="#ff6f00"/>
	</g>
</svg>
